<?xml version="1.0"?>
<svg xmlns="http://www.w3.org/2000/svg" xmlns:xlink="http://www.w3.org/1999/xlink" xmlns:svgjs="http://svgjs.com/svgjs" version="1.1" width="512" height="512" x="0" y="0" viewBox="0 0 512 512" style="enable-background:new 0 0 512 512" xml:space="preserve" class=""><g>
<path xmlns="http://www.w3.org/2000/svg" style="" d="M448,64h-48V16c0-8.832-7.168-16-16-16H96C69.536,0,48,21.536,48,48v400c0,35.296,28.704,64,64,64  h336c8.832,0,16-7.168,16-16V80C464,71.168,456.832,64,448,64z" fill="#de0a0a" data-original="#607d8b" class=""/>
<g xmlns="http://www.w3.org/2000/svg">
	<path style="" d="M96,32h272v32H96c-8.832,0-16-7.168-16-16S87.168,32,96,32z" fill="#fafafa" data-original="#fafafa" class=""/>
	<path style="" d="M368,385.44c0-14.912-10.336-27.872-24.864-31.168l-46.112-10.496   c-7.296-1.664-12.448-8.128-12.448-15.584V317.76c0-3.136,0.896-6.176,2.624-8.768c2.24-3.424,4.256-7.488,6.368-11.712   c2.176-4.32,5.6-10.72,6.528-12c8.8-8.896,16.288-17.28,18.368-27.584c1.76-8.416,0.448-12.128-1.344-15.808   c-0.992-2.144-1.568-4.48-1.568-6.848c-0.064-11.328-0.416-24.16-2.784-33.536c-0.256-1.12-0.416-2.272-0.448-3.424   c-0.352-12-2.24-18.208-7.36-23.776c-2.464-2.624-6.624-3.52-12.256-4.448c-3.552-0.544-5.504-0.96-6.848-1.408   c-11.328-5.984-19.776-8.16-30.816-8.448c-25.024,0.96-48.768,17.12-56.736,39.264c-2.336,6.528-2.304,17.92-2.048,31.04   l0.064,4.48c0.032,2.528-0.544,5.024-1.632,7.296c-1.696,3.36-3.072,7.104-1.312,15.456c2.112,10.4,9.408,18.592,16.256,25.248   c3.2,3.744,4.992,7.104,8.64,14.208c2.272,4.48,4.288,8.544,6.528,11.936c1.728,2.624,2.656,5.664,2.656,8.8v10.432   c0,7.456-5.184,13.952-12.448,15.584l-46.08,10.496C154.336,357.568,144,370.528,144,385.472V400c0,8.832,7.168,16,16,16h192   c8.832,0,16-7.168,16-16V385.44z" fill="#fafafa" data-original="#fafafa" class=""/>
</g>
<g xmlns="http://www.w3.org/2000/svg">
</g>
<g xmlns="http://www.w3.org/2000/svg">
</g>
<g xmlns="http://www.w3.org/2000/svg">
</g>
<g xmlns="http://www.w3.org/2000/svg">
</g>
<g xmlns="http://www.w3.org/2000/svg">
</g>
<g xmlns="http://www.w3.org/2000/svg">
</g>
<g xmlns="http://www.w3.org/2000/svg">
</g>
<g xmlns="http://www.w3.org/2000/svg">
</g>
<g xmlns="http://www.w3.org/2000/svg">
</g>
<g xmlns="http://www.w3.org/2000/svg">
</g>
<g xmlns="http://www.w3.org/2000/svg">
</g>
<g xmlns="http://www.w3.org/2000/svg">
</g>
<g xmlns="http://www.w3.org/2000/svg">
</g>
<g xmlns="http://www.w3.org/2000/svg">
</g>
<g xmlns="http://www.w3.org/2000/svg">
</g>
</g></svg>
